<?xml version="1.0" encoding="utf-8"?>
<!-- Generator: Adobe Illustrator 24.0.2, SVG Export Plug-In . SVG Version: 6.00 Build 0)  -->
<svg version="1.1" id="Layer_1" xmlns="http://www.w3.org/2000/svg" xmlns:xlink="http://www.w3.org/1999/xlink" x="0px" y="0px"
	 viewBox="0 0 512 512" style="enable-background:new 0 0 512  512;" xml:space="preserve">
<style type="text/css">
	.st0{fill:#C1E8F7;}
	.st1{fill:none;}
	.st2{fill:#9E542C;}
	.st3{fill:#FFDDCA;}
	.st4{fill:#FFE6D3;}
	.st5{fill:#554C44;}
	.st6{fill:#FFDBB4;}
	.st7{fill:#FBC39C;}
	.st8{fill:#FFCEA7;}
	.st9{fill:#E09A65;}
	.st10{fill:#C37D54;}
	.st11{fill:#CB8357;}
	.st12{fill:#ECAF85;}
	.st13{fill:#DF986A;}
</style>
<circle id="XMLID_8261_" class="st0" cx="256.0887" cy="255.7097" r="247.6328"/>
<g id="XMLID_6850_">
	<path id="XMLID_6885_" class="st1" d="M304.9411,306.3396c0.5969,1.2049,1.2476,2.4058,1.969,3.6014L304.9411,306.3396z"/>
	<path id="XMLID_6884_" class="st2" d="M336.1078,172.3926c-0.0114,10.5333-1.2332,20.3882-3.0358,26.2805
		c2.0022,0.8613,3.4674,3.8496,3.5396,8.5749c25.6519-5.2681,41.9228-13.0738,41.9228-21.7923c0-2.3015-1.1644-4.5349-3.3017-6.6799
		c0.7405,0.8182,1.4108,1.6634,2.0014,2.5372C377.2341,181.313,364.589,176.3394,336.1078,172.3926z"/>
	<path id="XMLID_6883_" class="st2" d="M141.6407,178.6914c0.1797-0.1981,0.3999-0.3797,0.5888-0.5737
		C142.02,178.3085,141.834,178.5007,141.6407,178.6914z"/>
	<path id="XMLID_6882_" class="st2" d="M183.0376,198.5744c-0.8676-3.8158-1.9447-9.841-2.2547-17.4953
		c-0.1219-3.0137-0.1156-5.8996-0.025-8.6972c-28.5327,3.9502-41.2006,8.931-41.2006,8.931
		c0.5903-0.8738,1.2601-1.7171,1.9999-2.5354c-2.1362,2.1432-3.2995,4.3784-3.2995,6.6781c0,8.5838,15.7741,16.2849,40.7469,21.5478
		C179.1287,202.0499,180.8336,199.1371,183.0376,198.5744z"/>
	<path id="XMLID_6881_" class="st2" d="M374.5591,178.1159c0.1919,0.1978,0.4158,0.3811,0.5992,0.5826
		C374.9616,178.5044,374.7724,178.3085,374.5591,178.1159z"/>
	<path id="XMLID_6880_" class="st3" d="M281.1625,383.0596c0.1543-0.214,0.3071-0.4242,0.4614-0.64
		c-0.3189,0.1565-0.6094,0.2607-0.9327,0.4279L281.1625,383.0596z"/>
	<path id="XMLID_6879_" class="st3" d="M209.8148,339.0805c9.026,11.4358,22.9527,32.2954,29.6632,43.1913h0.0022
		c0.3222,0.5001,0.6308,1.034,0.9453,1.5536c0.134,0.2213,0.2913,0.4747,0.4172,0.6849c0.2073,0.351,0.4146,0.6978,0.6187,1.0576
		c0.8355,1.4258,1.4078,2.4775,1.677,3.0907c7.4636,14.4223,12.9283,26.0072,12.9486,26.0503l0.0022,0.0037
		c2.0449-3.8515,7.6945-14.5247,13.6608-26.054c0.2692-0.6131,0.8414-1.6648,1.677-3.0907c0.2044-0.3598,0.411-0.7067,0.6187-1.0576
		c0.1259-0.2103,0.2832-0.4636,0.4169-0.6849c0.3145-0.5196,0.6234-1.0535,0.9453-1.5536h0.0026
		c6.7101-10.896,20.6375-31.7555,29.6632-43.1913c10.3521-13.1169,3.9085-29.0081,3.9085-29.0081l-0.0718-0.1315
		c-0.7214-1.1957-1.3721-2.3965-1.969-3.6014l-1.4792-2.7044c0.0887,0.0306,0.1937,0.0865,0.2839,0.119
		c-2.6768-6.2609-3.8725-12.475-4.3814-17.9412c-0.489,0.4478-0.9648,0.9117-1.4627,1.3503
		c-3.6968,3.2472-7.6525,6.2178-11.9024,8.7064c-2.8561,1.6722-5.8768,3.0388-8.9734,4.2072
		c-7.3063,4.3118-16.1681,5.4806-19.8406,5.4806c-4.0098,0-14.1306-1.3879-21.6719-6.7518
		c-3.2026-1.4328-6.3084-3.0818-9.2271-5.0273c-4.3232-2.8841-8.3234-6.234-12.0596-9.841
		c-0.0799-0.0773-0.1532-0.1635-0.2327-0.2427c-0.4854,7.4242-2.1211,16.5386-7.1797,25.3367l-0.0571,0.1167
		C206.7573,309.1482,199.4631,325.9637,209.8148,339.0805z"/>
	<path id="XMLID_6878_" class="st4" d="M275.4035,270.1393c-8.7296-3.28-18.2181-2.6234-18.2181-2.6234
		s-9.4886-0.6566-18.2182,2.6234c-8.7289,3.2796-7.9699,17.0526,3.7863,20.0034c11.7562,2.9522,5.323-3.607,6.462-6.5577
		c1.1382-2.9522,7.9699,0.4478,7.9699,0.4478s6.8317-3.4,7.9703-0.4478c1.1386,2.9507-5.2946,9.5099,6.4619,6.5577
		C283.3734,287.192,284.1331,273.4189,275.4035,270.1393z"/>
	<path id="XMLID_6877_" class="st4" d="M226.2864,293.7784c2.9187,1.9454,6.0245,3.5944,9.2271,5.0273
		c-5.3082-3.776-9.3493-9.5025-9.0356-18.1729c0.7593-20.9873,20.0804-24.9231,30.7075-24.9231s30.1544,3.9358,30.9137,24.9231
		c0.3509,9.7058-4.7879,15.7347-11.0731,19.444c3.0966-1.1684,6.1173-2.535,8.9734-4.2072
		c4.2499-2.4886,8.2056-5.4592,11.9024-8.7064c0.4979-0.4386,0.9737-0.9026,1.4627-1.3503c0.6805-0.622,1.3702-1.2336,2.0338-1.8755
		c15.8953-15.3466,15.7579-54.1253,19.595-51.3851c8.7694,5.8923,14.3873-11.6461,15.4843-22.0604
		c0.1226-1.167,0.1491-2.233,0.134-3.2439c-0.0722-4.7253-1.5374-7.7136-3.5396-8.5749c-0.7597,2.4849-1.614,4.321-2.5364,5.1175
		c-4.1586,3.5907-6.0547,12.865-6.2845,14.2426h-5.3543c-4.1266-4.5206-2.4886-19.4768-11.8763-31.9949
		c-4.1777-5.5704-5.2107-11.9123-5.9685-17.1068c-8.2638-0.527-17.2599-0.9206-27.0195-1.1257
		c-4.1564,2.3302-6.6593,3.5278-5.0913,0.935c0.2349-0.3885,0.3498-0.6798,0.5122-1.0105c-1.913-0.0287-3.8514-0.0504-5.8212-0.063
		c-1.5153,1.016-3.221,2.2621-5.2364,3.9108c-5.9107,4.835-18.631,13.6007-16.2841,8.1257
		c2.3468-5.4769-8.4114,3.0277-17.7991,9.2867c-9.3873,6.2576-9.0618,4.7021-5.9332-0.7748
		c3.1297-5.4751-14.6237,5.6459-16.9702,10.3407c-2.3472,4.6929-3.1293,18.7753-3.1293,18.7753h-6.7367
		c0-10.0836-7.328-14.2746-7.328-14.2746s-0.5329-1.649-1.1777-4.4826c-2.2039,0.5627-3.9089,3.4755-4.033,8.4291
		c-0.0269,1.0753,0.0118,2.2334,0.144,3.4884c1.0959,10.4143,6.7142,27.9527,15.4839,22.0604
		c3.8172-2.7257,3.7075,35.6394,19.3615,51.1425c0.0795,0.0792,0.1528,0.1653,0.2327,0.2427
		C217.963,287.5444,221.9632,290.8943,226.2864,293.7784z"/>
	<path id="XMLID_6876_" class="st5" d="M301.0521,168.9315c0.7578,5.1945,1.7908,11.5363,5.9685,17.1068
		c9.3877,12.5181,7.7497,27.4743,11.8763,31.9949h5.3543c0.2298-1.3776,2.1259-10.6518,6.2845-14.2426
		c0.9224-0.7965,1.7768-2.6326,2.5364-5.1175c1.8026-5.8923,3.0244-15.7472,3.0358-26.2805
		C326.3302,171.0367,314.7003,169.8035,301.0521,168.9315z"/>
	<path id="XMLID_6875_" class="st5" d="M180.7578,172.3819c-0.0906,2.7976-0.0968,5.6835,0.025,8.6972
		c0.3101,7.6543,1.3872,13.6795,2.2547,17.4953c0.6448,2.8336,1.1777,4.4826,1.1777,4.4826s7.328,4.191,7.328,14.2746h6.7367
		c0,0,0.7822-14.0824,3.1293-18.7753c2.3465-4.6947,20.0999-15.8157,16.9702-10.3407c-3.1286,5.4769-3.4541,7.0323,5.9332,0.7748
		c9.3876-6.259,20.1459-14.7636,17.7991-9.2867c-2.3468,5.4751,10.3734-3.2906,16.2841-8.1257
		c2.0154-1.6486,3.7211-2.8948,5.2364-3.9108c-1.7341-0.0125-3.4586-0.0269-5.2368-0.0269
		C225.0439,167.6404,199.4896,169.7891,180.7578,172.3819z"/>
	<path id="XMLID_6874_" class="st5" d="M268.9412,168.7407c-1.568,2.5928,0.935,1.3953,5.0913-0.935
		c-1.4987-0.0324-3.0435-0.0523-4.5791-0.0755C269.291,168.061,269.1761,168.3522,268.9412,168.7407z"/>
	<path id="XMLID_6873_" class="st6" d="M185.0176,345.8629c1.2344-8.5551,2.6617-16.0514,3.7432-19.8524
		c1.3017-4.5795,3.5874-8.5642,6.2727-11.912c-5.4043,0.7766-14.4381,5.6853-24.1329,11.0956l0,0
		C174.1784,327.6108,179.1813,335.2975,185.0176,345.8629z"/>
	<polygon id="XMLID_6872_" class="st6" points="256.0887,414.7127 256.0891,414.7127 256.0869,414.709 	"/>
	<path id="XMLID_6871_" class="st6" d="M255.2742,416.2446h0.0007c0.0018-0.0052,0.2979-0.5609,0.8138-1.5319
		c0,0-4.6454-1.8018-15.5392-14.1903c-8.2251-9.3534-12.9692-12.0814-12.9692-12.0814s-5.7387-0.7983,0.5608-3.7561l4.0558-1.8376
		c-13.4383-6.9406-22.619-5.5329-29.591-2.208c18.7138,39.2931,37.7598,84.7462,37.7598,84.7462v37.4073
		c4.9352,0.309,9.8988,0.5122,14.9084,0.5284V416.2446L255.2742,416.2446z"/>
	<path id="XMLID_6870_" class="st7" d="M91.8011,355.4663c-10.8135,3.7241-17.229,30.632-24.8038,60.0628
		c17.8665,21.1166,39.1937,39.1941,63.1248,53.3667C130.027,412.627,108.7314,365.1327,91.8011,355.4663z"/>
	<path id="XMLID_6869_" class="st8" d="M327.4681,343.157c5.2799-9.332,9.7857-16.0606,12.8086-18.2899l0,0
		c-8.4534-4.472-16.2966-8.3952-21.5106-9.4598c2.261,3.0155,4.1987,6.5146,5.3613,10.6032
		C325.0929,329.4053,326.3347,335.7487,327.4681,343.157z"/>
	<path id="XMLID_6868_" class="st8" d="M419.4061,355.5241c-0.0258-0.0773-0.0729-0.1547-0.1219-0.232
		c-0.0571,0.0305-0.1164,0.0736-0.1734,0.106C419.211,355.4287,419.3067,355.488,419.4061,355.5241z"/>
	<path id="XMLID_6867_" class="st8" d="M412.4143,351.9477c3.421,1.5569,5.7711,2.6414,6.6413,3.0457
		C418.1563,354.064,415.7823,353.0536,412.4143,351.9477z"/>
	<path id="XMLID_6866_" class="st8" d="M308.6659,379.9508c-6.5923-2.7062-15.112-3.4291-27.042,2.4687
		c-0.1543,0.2158-0.3071,0.4261-0.4614,0.64l3.5845,1.6254c6.2996,2.9577,1.4627,3.3551,1.4627,3.3551s-5.6459,3.129-13.871,12.4824
		c-10.8945,12.3903-17.0644,15.7222-17.0644,15.7222v87.0768c0.2729,0.0018,0.541,0.0217,0.8145,0.0217
		c4.8185,0,9.5961-0.1727,14.3464-0.446v-37.5116C270.4352,465.3857,289.7709,419.4472,308.6659,379.9508z"/>
	<polygon id="XMLID_6865_" class="st8" points="255.2742,416.2446 255.2742,416.2446 255.2749,416.2446 	"/>
	<path id="XMLID_6864_" class="st9" d="M240.3658,465.3857c0,0-19.046-45.4531-37.7598-84.7462
		c-7.0585,3.3658-11.8519,8.6953-16.4833,9.3284c-5.7512,0.7858-3.9384-24.4665-1.1051-44.105
		c-5.8363-10.5653-10.8393-18.252-14.117-20.6688l0,0c-5.4287-4.0024-79.5643,29.9883-79.5643,29.9883
		c0.1536,0.081,0.3108,0.1941,0.4647,0.2839c16.9304,9.6664,38.226,57.1607,38.321,113.4295
		c7.0629,4.1822,14.3534,8.0123,21.845,11.4915v-23.4918v-24.5258h61.6765v24.5258v32.9461h-38.1902
		c20.5521,7.0769,42.3142,11.5345,64.9126,12.9515V465.3857z"/>
	<path id="XMLID_6863_" class="st10" d="M213.6435,456.8954l-11.9149,8.4114h-38.1969l-11.5647-8.4114v23.4918
		c7.6267,3.5403,15.4629,6.6924,23.4862,9.4543h38.1902V456.8954z"/>
	<polygon id="XMLID_6862_" class="st11" points="201.7286,465.3069 213.6435,456.8954 213.6435,432.3697 151.967,432.3697 
		151.967,456.8954 163.5317,465.3069 	"/>
	<path id="XMLID_6861_" class="st9" d="M386.5024,391.9077c11.6354-19.8075,15.4202-41.1594,32.2239-36.6749
		c0.1318,0.0357,0.2537,0.1223,0.3845,0.1653c0.0571-0.0324,0.1164-0.0755,0.1734-0.106c0.0593-0.0324,0.1201-0.0792,0.1794-0.1097
		c0,0-0.1679-0.0792-0.408-0.1889c-0.8702-0.4043-3.2203-1.4888-6.6413-3.0457c-18.5672-8.4475-67.7422-30.3209-72.1375-27.0807l0,0
		c-3.0229,2.2294-7.5287,8.9579-12.8086,18.2899c3.0505,19.9334,5.3171,47.6342-0.7026,46.8109
		c-4.972-0.6798-10.1503-6.7536-18.0995-10.017c-18.895,39.4964-38.2307,85.4348-38.2307,85.4348v37.5116
		c23.0926-1.3198,45.3176-5.833,66.2887-13.0557h-39.5667v-32.9461v-24.5258h61.6765v24.5258v24.1137
		c6.9886-3.1916,13.7981-6.6976,20.4199-10.5023C379.1213,435.7015,381.1235,401.0638,386.5024,391.9077z"/>
	<path id="XMLID_6860_" class="st10" d="M347.269,465.3069h-38.1969l-11.9149-8.4114v32.9461h39.5667
		c7.5428-2.5965,14.9168-5.5472,22.1097-8.8323v-24.1137L347.269,465.3069z"/>
	<polygon id="XMLID_6859_" class="st11" points="347.269,465.3069 358.8336,456.8954 358.8336,432.3697 297.1572,432.3697 
		297.1572,456.8954 309.0721,465.3069 	"/>
	<path id="XMLID_6858_" class="st12" d="M185.0176,345.8629c-2.8333,19.6385-4.6461,44.8908,1.1051,44.105
		c4.6314-0.633,9.4248-5.9626,16.4833-9.3284c6.972-3.3249,16.1527-4.7327,29.591,2.208l-4.0558,1.8376
		c-6.2995,2.9577-0.5608,3.7561-0.5608,3.7561s4.7441,2.728,12.9692,12.0814c10.8938,12.3885,15.5381,14.1903,15.5381,14.1903
		c-0.5148,0.971-0.8109,1.5267-0.8127,1.5319h-0.0007c0,0,6.1699-3.3319,17.0644-15.7222
		c8.2251-9.3534,13.871-12.4824,13.871-12.4824s4.8369-0.3973-1.4627-3.3551l-3.5845-1.6254l-0.4713-0.2121
		c0.3233-0.1672,0.6139-0.2714,0.9327-0.4279c11.93-5.8978,20.4497-5.1749,27.042-2.4687
		c7.9493,3.2634,13.1275,9.3372,18.0995,10.017c6.0197,0.8234,3.7532-26.8774,0.7026-46.8109
		c-1.1335-7.4083-2.3752-13.7517-3.3407-17.1465c-1.1625-4.0886-3.1003-7.5877-5.3613-10.6032
		c-4.5769-6.1025-10.583-10.0276-15.0203-11.6531c-0.0902-0.0324-0.1952-0.0884-0.2839-0.119l1.4792,2.7044l1.969,3.6014
		l0.0718,0.1315c0,0,6.4435,15.8912-3.9085,29.0081c-9.0257,11.4358-22.953,32.2954-29.6632,43.1913h-0.0026
		c-0.3218,0.5001-0.6308,1.034-0.9453,1.5536c-0.1337,0.2213-0.2909,0.4747-0.4169,0.6849
		c-0.2077,0.351-0.4143,0.6978-0.6187,1.0576c-0.8355,1.4258-1.4078,2.4775-1.677,3.0907
		c-5.9663,11.5294-11.6159,22.2025-13.6608,26.054h-0.0004l-0.0018-0.0037c-0.0203-0.0431-5.485-11.6281-12.9486-26.0503
		c-0.2692-0.6131-0.8414-1.6648-1.677-3.0907c-0.204-0.3598-0.4113-0.7067-0.6187-1.0576
		c-0.1259-0.2103-0.2832-0.4636-0.4172-0.6849c-0.3145-0.5196-0.6231-1.0535-0.9453-1.5536h-0.0022
		c-6.7105-10.896-20.6371-31.7555-29.6632-43.1913c-10.3517-13.1169-3.0575-29.9324-3.0575-29.9324l0.0571-0.1167l2.9776-6.0812
		c-4.2002,1.4726-10.0936,5.3333-14.7585,11.1482c-2.6852,3.3477-4.9709,7.3325-6.2727,11.912
		C187.6793,329.8115,186.252,337.3078,185.0176,345.8629z"/>
	<path id="XMLID_6855_" class="st5" d="M288.0991,280.6328c-0.7593-20.9873-20.2866-24.9231-30.9137-24.9231
		s-29.9482,3.9358-30.7075,24.9231c-0.3137,8.6703,3.7274,14.3969,9.0356,18.1729c7.5413,5.3639,17.6621,6.7518,21.6719,6.7518
		c3.6725,0,12.5343-1.1688,19.8406-5.4806C283.3112,296.3675,288.45,290.3386,288.0991,280.6328z M271.6176,290.1427
		c-11.7566,2.9522-5.3233-3.607-6.4619-6.5577c-1.1386-2.9522-7.9703,0.4478-7.9703,0.4478s-6.8317-3.4-7.9699-0.4478
		c-1.139,2.9507,5.2942,9.5099-6.462,6.5577c-11.7562-2.9507-12.5151-16.7238-3.7863-20.0034
		c8.7296-3.28,18.2182-2.6234,18.2182-2.6234s9.4886-0.6566,18.2181,2.6234C284.1331,273.4189,283.3734,287.192,271.6176,290.1427z"
		/>
	<path id="XMLID_6854_" class="st9" d="M179.3272,149.8664c4.1427-2.4868,48.7706-8.2855,79.0683-8.2855
		c30.2991,0,74.9263,5.7987,79.069,8.2855c0.4758,0.2861,0.9482,0.7464,1.4089,1.311
		c-17.408-61.7995-80.4779-61.8356-80.4779-61.8356s-63.0699,0.0361-80.4768,61.8356
		C178.3789,150.6128,178.8514,150.1525,179.3272,149.8664z"/>
	<path id="XMLID_6853_" class="st6" d="M258.3954,153.9716c0,0,49.1484-0.394,85.0478,9.1052
		c-0.39-3.5745-2.3218-9.1413-4.5699-11.8994c-0.4607-0.5645-0.9331-1.0248-1.4089-1.311
		c-4.1427-2.4868-48.7699-8.2855-79.069-8.2855c-30.2977,0-74.9255,5.7987-79.0683,8.2855
		c-0.4758,0.2861-0.9482,0.7464-1.4085,1.311c-2.2485,2.7581-4.1807,8.3249-4.5703,11.8994
		C209.247,153.5757,258.3954,153.9716,258.3954,153.9716z"/>
	<path id="XMLID_6852_" class="st13" d="M180.7578,172.3819c18.7318-2.5928,44.2861-4.7415,77.6376-4.7415
		c1.7782,0,3.5027,0.0144,5.2368,0.0269c1.9698,0.0125,3.9082,0.0343,5.8212,0.063c1.5356,0.0232,3.0804,0.0431,4.5791,0.0755
		c9.7596,0.2051,18.7558,0.5988,27.0195,1.1257c13.6483,0.872,25.2781,2.1053,35.0558,3.4611
		c28.4811,3.9468,41.1262,8.9203,41.1262,8.9203c-0.5906-0.8738-1.2609-1.719-2.0014-2.5372
		c-0.0236-0.0269-0.0508-0.0504-0.0744-0.0773c-0.1834-0.2014-0.4073-0.3848-0.5992-0.5826
		c-6.5039-6.6995-17.8996-11.54-31.1159-15.0391c-35.8994-9.4992-85.0478-9.1052-85.0478-9.1052s-49.1485-0.3959-85.0471,9.1052
		c-13.2181,3.4991-24.6153,8.3415-31.1188,15.0409c-0.1889,0.1941-0.4091,0.3756-0.5888,0.5737
		c-0.0269,0.0287-0.0574,0.0574-0.0836,0.0862c-0.7398,0.8182-1.4096,1.6615-1.9999,2.5354
		C139.5572,181.313,152.2251,176.3321,180.7578,172.3819z"/>
	<path id="XMLID_6851_" class="st7" d="M419.4061,355.5241c-0.0994-0.0361-0.1952-0.0954-0.2953-0.1259
		c-0.1307-0.0431-0.2526-0.1296-0.3845-0.1653c-16.8037-4.4845-20.5885,16.8674-32.2239,36.6749
		c-5.3789,9.156-7.3811,43.7938-7.2489,78.5991c24.6856-14.187,46.6849-32.4876,65.0746-53.9942
		C436.6738,386.8267,430.2576,359.4706,419.4061,355.5241z"/>
</g>
</svg>
